<?xml version="1.0" encoding="utf-8"?>
<!-- Generator: Adobe Illustrator 18.1.1, SVG Export Plug-In . SVG Version: 6.00 Build 0)  -->
<svg version="1.1" id="Layer_1" xmlns="http://www.w3.org/2000/svg" xmlns:xlink="http://www.w3.org/1999/xlink" x="0px" y="0px"
	 viewBox="0 0 166.3 47.1" enable-background="new 0 0 166.3 47.1" xml:space="preserve">
<g>
	<path fill="#58004A" stroke="#58004A" stroke-width="0.5" stroke-miterlimit="10" d="M87.1,20.8v-8.9c-1.1,0.2-2.2,0.7-3.2,1.4
		c-0.6,0.4-1.1,0.8-1.4,1.2c-0.4,0.4-0.7,0.9-1.1,1.4c0.6,0.2,1.2,0.5,1.8,0.8c0.5,0.3,1,0.6,1.5,1c0.5,0.4,1,0.9,1.4,1.4
		C86.3,19.5,86.7,20.1,87.1,20.8 M89.5,26.5C89.6,26.5,89.6,26.5,89.5,26.5c0,0.1,0,0.1,0,0.1c0,0.1-0.1,0.1-0.2,0.1
		c-0.1,0-0.3,0-0.7,0c-0.4,0-0.6,0-0.8,0c-0.2,0-0.6,0-1.1,0.1c-0.2,0-0.3,0-0.4,0c-0.1,0-0.2,0-0.2-0.1c0,0,0-0.1,0-0.1
		c0,0,0.2-0.2,0.5-0.4c0.2-0.2,0.4-0.3,0.4-0.5c0-0.1,0-0.2,0.1-0.4c0-0.2,0-0.3,0-0.5c0-0.8-0.1-1.6-0.4-2.4
		c-0.4-1.1-1-2.2-1.9-3.2c-0.5-0.6-1.1-1.1-1.8-1.5c-0.7-0.4-1.4-0.8-2.3-1c-0.4,0.8-0.8,1.6-1.1,2.5c-0.4,1.2-0.6,2.3-0.6,3.4
		c0,1.1,0,2,0.1,2.5c0.1,0.9,0.3,1.6,0.6,2.3c0.2,0.4,0.5,0.8,0.9,1.1c0.2,0.2,0.5,0.3,0.8,0.5c0.1,0,0.1,0.1,0.1,0.2
		c0,0.1,0,0.1-0.1,0.1c-0.2,0.1-0.4,0.1-0.6,0.2c-0.2,0.1-0.4,0.2-0.7,0.3c-0.3,0.1-0.5,0.3-0.7,0.4c-0.1,0.1-0.2,0.2-0.4,0.3
		c-0.1,0-0.1,0.1-0.1,0.1c-0.1,0-0.1-0.1-0.1-0.2c0-0.2,0-0.5,0-0.8c0-0.3-0.1-0.8-0.2-1.4c-0.1-0.8-0.3-1.5-0.4-2.3
		c-0.1-0.8-0.2-1.5-0.2-2.1c0-1.4,0.2-2.7,0.5-4.1c0.3-1.2,0.7-2.2,1.2-3.1c-0.2,0-0.3-0.1-0.5-0.1c-0.2,0-0.4,0-0.6,0
		c-0.4,0-0.9,0-1.3,0.2c-0.5,0.1-0.9,0.3-1.2,0.5c-0.5,0.3-0.7,0.7-0.7,1.1c0,0.4,0.2,0.7,0.5,0.8c0,0,0.1,0,0.1,0
		c0.2,0,0.3,0,0.4-0.1c0.1-0.1,0.2-0.2,0.2-0.3c0-0.1,0.1-0.2,0.1-0.2c0,0,0.1,0,0.1,0.1c0,0.1,0,0.2,0,0.3c0,0.1,0,0.1,0,0.2
		c0,0.1,0,0.2,0,0.2c-0.1,0.3-0.3,0.5-0.5,0.7c-0.2,0.2-0.5,0.3-0.9,0.3c0,0-0.1,0-0.1,0c-0.4,0-0.7-0.1-1-0.4
		c-0.3-0.3-0.4-0.7-0.4-1.1c0-0.8,0.4-1.4,1.3-1.9c0.6-0.3,1.2-0.6,1.9-0.7c0.2,0,0.5-0.1,0.8-0.1c0.3,0,0.6,0,0.9,0
		c0.6,0,1.1,0,1.4,0.1c1.1-1.4,2.3-2.6,3.6-3.4c1.5-0.9,3.2-1.4,5-1.4c0.2,0,0.4,0,0.4,0.1c0,0,0,0.1-0.1,0.1
		c-0.3,0.3-0.4,0.5-0.5,0.8c-0.1,0.3-0.1,0.9-0.1,1.7v12c0,0.1,0.1,0.3,0.3,0.5C89.4,26.3,89.5,26.5,89.5,26.5"/>
	<path fill="#58004A" stroke="#58004A" stroke-width="0.5" stroke-miterlimit="10" d="M95.9,11.2c0,0-0.2,0.1-0.5,0.4
		c-0.2,0.2-0.4,0.3-0.4,0.5v9.4c0,0.7,0.1,1.2,0.2,1.6c0.1,0.2,0.2,0.4,0.4,0.5c0,0,0.1,0.1,0.1,0.1c0,0,0,0.1-0.1,0.1
		c-0.1,0-0.2,0.1-0.3,0.2c-0.2,0.2-0.5,0.5-0.7,1.1c-1.3,4.6-5,5.3-5.8,5.3c-0.4,0-0.7-0.1-1-0.3c-0.2-0.2-0.4-0.4-0.4-0.6
		c0-0.2,0.1-0.4,0.2-0.6c0.1-0.2,0.3-0.2,0.5-0.2c0.2,0,0.4,0.1,0.5,0.2c0.1,0.1,0.2,0.2,0.2,0.3c0,0.2,0,0.3,0,0.4
		c0,0.1,0.1,0.1,0.2,0.1c0.3,0,4.3-1.7,4.3-6.3V12c0-0.1-0.1-0.3-0.3-0.5c-0.2-0.1-0.3-0.3-0.5-0.4c0,0,0-0.1,0-0.1
		c0-0.1,0.1-0.1,0.2-0.1c0.1,0,0.3,0,0.7,0c0.4,0,0.6,0,0.8,0c0.3,0,0.6,0,0.9,0c0.3,0,0.5,0,0.5,0c0.1,0,0.2,0,0.2,0.1
		C95.9,11.1,95.9,11.1,95.9,11.2"/>
	<path fill="#58004A" stroke="#58004A" stroke-width="0.75" stroke-miterlimit="10" d="M65.8,22c0-0.5-0.2-1-0.6-1.5
		c-0.3-0.4-0.6-0.7-1-1.1c-0.4,0.3-0.6,0.6-0.8,1c-0.3,0.5-0.4,0.9-0.4,1.4c0,0.6,0.1,1.1,0.3,1.5c0.3,0.5,0.7,0.7,1.1,0.7
		c0.4,0,0.8-0.2,1-0.7C65.7,23,65.8,22.5,65.8,22 M74.5,29.1c0.1,0.1,0.2,0.2,0.2,0.2c0,0.1-0.1,0.1-0.3,0.1c-0.2,0-0.3,0-0.5,0
		c-0.6,0-1-0.1-1.2-0.1c-0.3,0-0.6,0-0.8,0c-0.2,0-0.4,0-0.7,0c-0.2,0-0.3,0-0.3-0.1c0-0.1,0-0.1,0.1-0.2c0.2-0.2,0.4-0.3,0.5-0.4
		c0.2-0.2,0.3-0.4,0.3-0.5l-2-15L65.5,18c0.5,0.5,0.9,1.1,1.2,1.7c0.4,0.7,0.6,1.4,0.6,2.1c0,0.9-0.2,1.6-0.7,2.2
		c-0.5,0.7-1.1,1-1.9,1c-0.8,0-1.4-0.3-1.9-1c-0.5-0.6-0.7-1.3-0.7-2.2c0-0.6,0.2-1.2,0.5-1.8c0.2-0.5,0.5-0.9,0.9-1.3
		c-1-1.2-1.8-2.2-2.3-3c-0.6-0.8-0.9-1.5-1.1-1.9l-2,14.4c0,0.2,0.1,0.3,0.3,0.5c0.2,0.2,0.4,0.3,0.6,0.4c0.1,0.1,0.1,0.1,0.1,0.2
		c0,0.1-0.1,0.1-0.2,0.1c-0.1,0-0.3,0-0.7,0c-0.4,0-0.7,0-0.9,0c-0.4,0-0.7,0-0.9,0c-0.2,0-0.5,0-0.8,0c-0.2,0-0.3,0-0.3-0.1
		c0-0.1,0.1-0.2,0.2-0.2c0.2-0.1,0.3-0.3,0.5-0.4c0.2-0.2,0.3-0.4,0.4-0.5l2.3-16c0-0.2-0.1-0.4-0.3-0.6c-0.2-0.1-0.4-0.3-0.6-0.4
		c-0.1-0.1-0.1-0.1-0.1-0.2c0-0.1,0.1-0.2,0.2-0.2c0.1,0,0.3,0,0.6,0c0.4,0,0.7,0,1,0c0.4,0,0.7,0,0.9,0c0.2,0,0.5,0,0.8-0.1
		c0.2,0,0.3,0,0.3,0.1c0,0.1,0,0.1-0.1,0.2c-0.2,0.2-0.4,0.3-0.5,0.4c-0.2,0.2-0.4,0.4-0.4,0.5c0,0,0,0.1,0,0.1
		c0.1,0.4,0.6,1,1.3,1.8c0.6,0.7,1.3,1.4,2,2.2c0.7,0.7,1,1,1.1,1l4.3-4.9c0.1-0.1,0.2-0.3,0.2-0.4c0-0.1,0-0.2-0.1-0.3
		c0-0.1-0.1-0.1-0.3-0.2c-0.1-0.1-0.3-0.2-0.4-0.3c-0.1-0.1-0.1-0.1-0.1-0.2c0-0.1,0.1-0.1,0.3-0.1c0.2,0,0.3,0,0.5,0
		c0.6,0,1,0.1,1.2,0.1c0.3,0,0.6,0,0.9,0c0.4,0,0.6,0,0.6,0c0.2,0,0.4,0.1,0.4,0.2c0,0.1,0,0.1-0.1,0.2c-0.2,0.1-0.3,0.2-0.4,0.3
		c-0.4,0.2-0.5,0.5-0.5,0.7l2.1,16c0,0.2,0.2,0.3,0.4,0.5C74.1,28.8,74.3,29,74.5,29.1"/>
	<path fill="#58004A" stroke="#58004A" stroke-width="0.5" stroke-miterlimit="10" d="M113.5,14.1c0,0.7-0.2,1.3-0.7,1.8
		c-0.4,0.5-1.1,1-2,1.4c-0.7,0.3-1.4,0.6-2.3,0.8c-0.5,0.1-1.3,0.2-2.4,0.4c-1.1,0.2-1.9,0.3-2.4,0.5c-0.9,0.2-1.7,0.6-2.5,1.2
		c-0.7,0.5-1.2,1-1.6,1.6c0.3,1.5,1,2.8,2.2,4c1.3,1.3,2.8,2,4.5,2c1.2,0,2.2-0.2,3-0.7c0.8-0.5,1.2-1.1,1.2-1.8
		c0-0.2,0-0.4-0.1-0.6c-0.1-0.2-0.1-0.3-0.1-0.5c0,0,0-0.1,0-0.1c0,0,0.1,0,0.2,0c0.2,0,0.4,0.1,0.7,0.3c0.3,0.3,0.4,0.6,0.4,1
		c0,1-0.6,1.9-1.8,2.6c-1.1,0.6-2.4,0.9-3.9,0.9c-2.4,0-4.4-0.8-5.9-2.5c-1.5-1.7-2.3-3.9-2.3-6.6c0-2.4,0.8-4.5,2.4-6.3
		c1.6-1.8,3.6-2.7,5.9-2.7c1,0,1.9,0.2,2.6,0.6c0.8,0.4,1.2,1,1.2,1.8c0,0.4-0.1,0.7-0.4,1c-0.2,0.3-0.6,0.4-1,0.5c0,0-0.1,0-0.1,0
		h-0.1c-0.2,0-0.3,0-0.4,0c-0.1,0-0.2-0.1-0.3-0.1c-0.1,0-0.1-0.1-0.1-0.1c0,0,0-0.1,0.1-0.1c0.2-0.1,0.3-0.2,0.3-0.3
		c0.1-0.2,0.2-0.4,0.3-0.7c0,0,0-0.1,0-0.1v-0.1c0-0.5-0.3-0.8-0.9-1.1c-0.5-0.2-1-0.3-1.6-0.3c-0.9,0-1.8,0.2-2.6,0.6
		c-0.8,0.4-1.5,1-2.1,1.7c-0.6,0.7-1,1.5-1.2,2.4c-0.3,0.9-0.4,1.9-0.4,3c0,0.2,0,0.4,0,0.7c0,0.3,0,0.5,0.1,0.8
		c0.3-0.4,0.8-0.9,1.4-1.5c0.8-0.8,1.6-1.3,2.4-1.6c0.7-0.2,1.3-0.4,2-0.6c0.4-0.1,1-0.2,2-0.3c0.9-0.1,1.7-0.2,2.2-0.3
		c0.9-0.2,1.6-0.4,2.1-0.6c0.7-0.4,1.1-0.9,1.1-1.5c0-0.4-0.1-0.7-0.4-0.9c-0.1,0-0.2-0.1-0.3-0.1c-0.1,0-0.2,0-0.2,0
		c-0.1,0.1-0.2,0.1-0.2,0.1c0,0-0.1,0-0.1-0.1c0,0,0-0.1,0-0.2c0-0.1,0.1-0.3,0.3-0.4c0.2-0.1,0.4-0.2,0.6-0.2
		c0.3,0,0.6,0.1,0.8,0.4C113.4,13.4,113.5,13.7,113.5,14.1"/>
	<path fill="#58004A" stroke="#58004A" stroke-width="0.5" stroke-miterlimit="10" d="M127.4,22.9c0,1.7-0.7,3.2-2.2,4.3
		c-1.4,1.1-3,1.6-4.9,1.6c-1.7,0-3.2-0.4-4.4-1.2c-1.3-0.9-2-2.2-2-3.8c0-1.1,0.5-2.1,1.4-2.9c0.9-0.8,2-1.2,3.3-1.2
		c1.2,0,2.3,0.2,3,0.7c0.9,0.5,1.3,1.3,1.3,2.3c0,0.7-0.3,1.3-0.9,1.8c-0.6,0.5-1.3,0.7-2,0.7c-0.7,0-1.3-0.1-1.8-0.4
		c-0.6-0.3-0.9-0.7-0.9-1.3c0-0.3,0.1-0.6,0.4-0.9c0.2-0.2,0.4-0.3,0.6-0.3c0.2,0,0.3,0,0.3,0c0.1,0,0.1,0,0.1,0.1
		c0,0,0,0.1-0.1,0.1c0,0,0,0.1,0,0.1c-0.1,0.2-0.1,0.3-0.1,0.5c0,0.3,0.1,0.5,0.4,0.7c0.3,0.2,0.5,0.3,0.9,0.3
		c0.5,0,0.9-0.2,1.3-0.5c0.3-0.3,0.5-0.7,0.5-1.2c0-0.7-0.3-1.2-1-1.6c-0.6-0.3-1.3-0.5-2.1-0.5c-1.1,0-2,0.3-2.8,0.9
		c-0.8,0.7-1.2,1.5-1.2,2.5c0,1.3,0.6,2.3,1.8,3.1c1.1,0.7,2.4,1,3.9,1c1.5,0,2.9-0.5,4-1.4c1.1-1,1.7-2.2,1.7-3.7
		c0-0.8-0.2-1.5-0.6-2.1c-0.3-0.5-0.8-1-1.5-1.5c-0.5-0.3-1.2-0.8-2.1-1.3c-1.2-0.6-2.4-1.2-3.6-1.7c-1.2-0.7-1.8-1.6-1.8-2.5
		c0-1,0.5-1.7,1.5-2.3c0.9-0.5,1.9-0.7,3.1-0.7c0.9,0,1.7,0.1,2.2,0.3c0.8,0.3,1.1,0.7,1.1,1.4c0,0.3-0.1,0.5-0.3,0.7
		c-0.2,0.2-0.4,0.3-0.6,0.3c-0.2,0-0.3,0-0.4,0c-0.2,0-0.3,0-0.5-0.1c-0.1-0.1-0.1-0.1-0.1-0.1c0,0,0-0.1,0.1-0.1
		c0.1-0.1,0.2-0.2,0.2-0.4c0-0.1,0.1-0.3,0.1-0.4c0-0.4-0.2-0.7-0.7-0.9c-0.4-0.2-0.8-0.2-1.3-0.2c-0.9,0-1.6,0.1-2.2,0.4
		c-0.7,0.3-1.1,0.8-1.1,1.4c0,0.5,0.3,0.9,0.8,1.3c0.4,0.3,1,0.6,1.9,1c1.3,0.6,2.1,0.9,2.3,1c1.1,0.5,1.9,1,2.5,1.5
		c0.8,0.6,1.4,1.3,1.7,2C127.2,20.7,127.4,21.7,127.4,22.9"/>
	<path fill="#58004A" stroke="#58004A" stroke-width="0.5" stroke-miterlimit="10" d="M141,10.4c0,0.6-0.4,1.2-1.3,1.7
		c-0.9,0.5-1.8,0.8-2.8,0.8c-0.4,0-0.7,0-1-0.1c-0.3,0-0.6-0.1-1.1-0.2v14.6c0,0.2,0.1,0.3,0.4,0.5c0.3,0.3,0.5,0.4,0.5,0.4
		c0,0,0,0,0,0.1c0,0,0,0,0,0.1c0,0.1-0.1,0.1-0.2,0.1c-0.1,0-0.3,0-0.7,0c-0.4,0-0.7,0-0.9,0c-0.3,0-0.7,0-1.2,0.1
		c-0.2,0-0.3,0-0.4,0c-0.1,0-0.2-0.1-0.2-0.2c0,0,0-0.1,0-0.1c0,0,0.2-0.2,0.5-0.4c0.3-0.2,0.4-0.4,0.4-0.5V12.4
		c-0.6-0.1-1-0.2-1.4-0.2c-0.6-0.1-1.3-0.1-1.9-0.1c-0.7,0-1.2,0.1-1.5,0.3c-0.3,0.2-0.5,0.5-0.5,0.9c0,0.1,0,0.3,0.2,0.4
		c0.1,0.1,0.2,0.2,0.3,0.2c0.1,0,0.2,0,0.3,0c0.1,0,0.2,0,0.3,0c0.1,0,0.1-0.1,0.2-0.1c0.1,0,0.1,0,0.1,0c0,0,0,0.1,0,0.2
		c-0.1,0.2-0.2,0.4-0.3,0.6c-0.2,0.2-0.5,0.4-0.9,0.4c-0.3,0-0.6-0.1-0.8-0.4c-0.2-0.2-0.3-0.5-0.3-0.9c0-0.8,0.5-1.4,1.6-2
		c1.1-0.5,2.3-0.8,3.6-0.8c0.7,0,1.4,0.1,2,0.2c0.6,0.1,1.3,0.3,2,0.4c0.7,0.1,1.4,0.2,2.1,0.2c0.6,0,1-0.1,1.4-0.2
		c0.3-0.2,0.5-0.4,0.5-0.7c0-0.2-0.1-0.3-0.2-0.4c-0.1-0.1-0.3-0.1-0.5-0.1c-0.1,0-0.2,0-0.2-0.1c0,0,0-0.1,0-0.1
		c0.1-0.1,0.2-0.3,0.3-0.4c0.2-0.1,0.3-0.2,0.5-0.2c0.3,0,0.5,0.1,0.7,0.2C140.9,9.9,141,10.1,141,10.4"/>
	<path fill="#58004A" stroke="#58004A" stroke-width="0.5" stroke-miterlimit="10" d="M145.8,28.2C145.8,28.2,145.9,28.3,145.8,28.2
		c0,0.1,0,0.1,0,0.1c0,0.1-0.1,0.1-0.2,0.1c-0.1,0-0.3,0-0.7,0c-0.4,0-0.7,0-0.9,0c-0.3,0-0.7,0-1.2,0.1c-0.2,0-0.3,0-0.4,0
		c-0.1,0-0.2-0.1-0.2-0.2c0,0,0-0.1,0-0.1c0,0,0.2-0.2,0.5-0.5c0.3-0.2,0.4-0.4,0.4-0.5V12.4c0-0.2-0.1-0.3-0.4-0.5
		c-0.2-0.1-0.4-0.3-0.6-0.4c0,0,0-0.1,0-0.2c0-0.1,0.1-0.1,0.2-0.1c0.1,0,0.3,0,0.8,0c0.4,0,0.7,0,0.9,0c0.3,0,0.7,0,1,0
		c0.3,0,0.5,0,0.6,0c0.1,0,0.2,0,0.2,0.1c0,0.1,0,0.1-0.1,0.1c0,0-0.2,0.2-0.5,0.4c-0.3,0.2-0.4,0.4-0.4,0.5v14.9
		c0,0.2,0.1,0.3,0.4,0.5C145.6,28.1,145.8,28.2,145.8,28.2"/>
	<path fill="#58004A" stroke="#58004A" stroke-width="0.5" stroke-miterlimit="10" d="M163.4,11c0,0.3-0.1,0.5-0.3,0.8
		c-0.1,0.1-0.3,0.2-0.5,0.4c-0.1,0-0.1,0-0.1,0c-0.1,0-0.1,0-0.1-0.1c0.1-0.1,0.1-0.2,0.1-0.3c0-0.1,0-0.2,0-0.3
		c0-0.1,0-0.3-0.1-0.4c-0.1-0.2-0.3-0.4-0.5-0.6c-0.2-0.1-0.5-0.2-0.8-0.2c-0.5,0-1,0.2-1.4,0.6c-0.4,0.4-0.6,0.8-0.6,1.4
		c0,0.4,0.1,0.7,0.3,1.1c0.1,0.1,0.2,0.2,0.3,0.3c0.1,0,0.2,0.1,0.5,0.3c0.1,0,0.1,0.1,0.1,0.1c0,0,0,0.1-0.1,0.1l-0.8,0.4
		c-0.2,0.1-0.3,0.2-0.4,0.2c-0.2,0.1-0.3,0.2-0.3,0.2c0,0-0.1,0-0.1,0c-0.1,0-0.1-0.1-0.1-0.1c0-0.1,0-0.2,0.1-0.3
		c0-0.1,0-0.3,0-0.4c0-0.2,0-0.3-0.1-0.5c-0.2-0.7-0.6-1.2-1.3-1.6c-0.7-0.4-1.5-0.6-2.4-0.6c-1.7,0-3,0.8-4,2.2
		c-0.9,1.4-1.4,3-1.4,4.9c0,2.3,0.6,4.3,1.8,6.1c1.3,1.9,3,2.9,5.1,2.9c1.2,0,2.3-0.3,3.2-1c0.9-0.7,1.3-1.4,1.3-2.2
		c0-0.2-0.1-0.4-0.2-0.6c-0.1-0.2-0.3-0.3-0.4-0.3c-0.2,0-0.3,0-0.4,0.1c-0.1,0-0.1,0.1-0.2,0.2c0,0.1-0.1,0.1-0.1,0.1
		c0,0-0.1-0.1-0.1-0.2c0-0.2,0.1-0.5,0.2-0.7c0.2-0.3,0.5-0.5,0.8-0.5c0.4,0,0.7,0.2,0.9,0.5c0.2,0.3,0.3,0.6,0.3,1.1
		c0,0.1,0,0.2,0,0.2c-0.1,1.2-0.8,2.3-1.9,3.1c-1.2,0.9-2.5,1.3-4.1,1.3c-2.4,0-4.3-1-5.9-2.9c-1.5-1.9-2.2-4.1-2.2-6.7
		c0-2.3,0.7-4.2,2-5.9c1.4-1.7,3.2-2.6,5.3-2.6c1.4,0,2.5,0.4,3.4,1.2c0.1-0.7,0.4-1.2,0.8-1.8c0.5-0.6,1.2-0.9,2-0.9
		c0.6,0,1.1,0.2,1.5,0.5C163.2,10.1,163.4,10.5,163.4,11"/>
	<path fill="#B41E8E" d="M87.1,20.2v-8.9c-1.1,0.2-2.2,0.7-3.2,1.4c-0.6,0.4-1.1,0.8-1.4,1.2c-0.4,0.4-0.7,0.9-1.1,1.4
		c0.6,0.2,1.2,0.5,1.8,0.8c0.5,0.3,1,0.6,1.5,1c0.5,0.4,1,0.9,1.4,1.4C86.3,18.9,86.7,19.5,87.1,20.2 M89.5,25.9
		C89.6,25.9,89.6,25.9,89.5,25.9c0,0.1,0,0.1,0,0.1c0,0.1-0.1,0.1-0.2,0.1c-0.1,0-0.3,0-0.7,0c-0.4,0-0.6,0-0.8,0
		c-0.2,0-0.6,0-1.1,0.1c-0.2,0-0.3,0-0.4,0c-0.1,0-0.2,0-0.2-0.1c0,0,0-0.1,0-0.1c0,0,0.2-0.2,0.5-0.4c0.2-0.2,0.4-0.3,0.4-0.5
		c0-0.1,0-0.2,0.1-0.4c0-0.2,0-0.3,0-0.5c0-0.8-0.1-1.6-0.4-2.4c-0.4-1.1-1-2.2-1.9-3.2c-0.5-0.6-1.1-1.1-1.8-1.5
		c-0.7-0.4-1.4-0.8-2.3-1c-0.4,0.8-0.8,1.6-1.1,2.5c-0.4,1.2-0.6,2.3-0.6,3.4c0,1.1,0,2,0.1,2.5c0.1,0.9,0.3,1.6,0.6,2.3
		c0.2,0.4,0.5,0.8,0.9,1.1c0.2,0.2,0.5,0.3,0.8,0.5c0.1,0,0.1,0.1,0.1,0.2c0,0.1,0,0.1-0.1,0.1c-0.2,0.1-0.4,0.1-0.6,0.2
		c-0.2,0.1-0.4,0.2-0.7,0.3c-0.3,0.1-0.5,0.3-0.7,0.4c-0.1,0.1-0.2,0.2-0.4,0.3c-0.1,0-0.1,0.1-0.1,0.1c-0.1,0-0.1-0.1-0.1-0.2
		c0-0.2,0-0.5,0-0.8c0-0.3-0.1-0.8-0.2-1.4c-0.1-0.8-0.3-1.5-0.4-2.3c-0.1-0.8-0.2-1.5-0.2-2.1c0-1.4,0.2-2.7,0.5-4.1
		c0.3-1.2,0.7-2.2,1.2-3.1c-0.2,0-0.3-0.1-0.5-0.1c-0.2,0-0.4,0-0.6,0c-0.4,0-0.9,0-1.3,0.2c-0.5,0.1-0.9,0.3-1.2,0.5
		c-0.5,0.3-0.7,0.7-0.7,1.1c0,0.4,0.2,0.7,0.5,0.8c0,0,0.1,0,0.1,0c0.2,0,0.3,0,0.4-0.1c0.1-0.1,0.2-0.2,0.2-0.3
		c0-0.1,0.1-0.2,0.1-0.2c0,0,0.1,0,0.1,0.1c0,0.1,0,0.2,0,0.3c0,0.1,0,0.1,0,0.2c0,0.1,0,0.2,0,0.2c-0.1,0.3-0.3,0.5-0.5,0.7
		c-0.2,0.2-0.5,0.3-0.9,0.3c0,0-0.1,0-0.1,0c-0.4,0-0.7-0.1-1-0.4c-0.3-0.3-0.4-0.7-0.4-1.1c0-0.8,0.4-1.4,1.3-1.9
		c0.6-0.3,1.2-0.6,1.9-0.7c0.2,0,0.5-0.1,0.8-0.1c0.3,0,0.6,0,0.9,0c0.6,0,1.1,0,1.4,0.1c1.1-1.4,2.3-2.6,3.6-3.4
		c1.5-0.9,3.2-1.4,5-1.4c0.2,0,0.4,0,0.4,0.1c0,0,0,0.1-0.1,0.1c-0.3,0.3-0.4,0.5-0.5,0.8c-0.1,0.3-0.1,0.9-0.1,1.7v12
		c0,0.1,0.1,0.3,0.3,0.5C89.4,25.7,89.5,25.8,89.5,25.9"/>
	<path fill="#B41E8E" d="M95.9,10.5c0,0-0.2,0.2-0.5,0.4c-0.2,0.2-0.4,0.3-0.4,0.5v9.4c0,0.7,0.1,1.2,0.2,1.6
		c0.1,0.2,0.2,0.4,0.4,0.5c0,0,0.1,0.1,0.1,0.1c0,0,0,0.1-0.1,0.1c-0.1,0-0.2,0.1-0.3,0.2c-0.2,0.2-0.5,0.5-0.7,1.1
		c-1.3,4.6-5,5.3-5.8,5.3c-0.4,0-0.7-0.1-1-0.3c-0.2-0.2-0.4-0.4-0.4-0.6c0-0.2,0.1-0.4,0.2-0.6c0.1-0.2,0.3-0.2,0.5-0.2
		c0.2,0,0.4,0.1,0.5,0.2c0.1,0.1,0.2,0.2,0.2,0.3c0,0.2,0,0.3,0,0.4c0,0.1,0.1,0.1,0.2,0.1c0.3,0,4.3-1.7,4.3-6.3V11.4
		c0-0.1-0.1-0.3-0.3-0.5c-0.2-0.1-0.3-0.3-0.5-0.4c0,0,0-0.1,0-0.1c0-0.1,0.1-0.1,0.2-0.1c0.1,0,0.3,0,0.7,0c0.4,0,0.6,0,0.8,0
		c0.3,0,0.6,0,0.9,0c0.3,0,0.5,0,0.5,0c0.1,0,0.2,0,0.2,0.1C95.9,10.5,95.9,10.5,95.9,10.5"/>
	<path fill="#B41E8E" d="M65.8,21.4c0-0.5-0.2-1-0.6-1.5c-0.3-0.4-0.6-0.7-1-1.1c-0.4,0.3-0.6,0.6-0.8,1c-0.3,0.5-0.4,0.9-0.4,1.4
		c0,0.6,0.1,1.1,0.3,1.5c0.3,0.5,0.7,0.7,1.1,0.7c0.4,0,0.8-0.2,1-0.7C65.7,22.4,65.8,21.9,65.8,21.4 M74.5,28.5
		c0.1,0.1,0.2,0.2,0.2,0.2c0,0.1-0.1,0.1-0.3,0.1c-0.2,0-0.3,0-0.5,0c-0.6,0-1-0.1-1.2-0.1c-0.3,0-0.6,0-0.8,0c-0.2,0-0.4,0-0.7,0
		c-0.2,0-0.3,0-0.3-0.1c0-0.1,0-0.1,0.1-0.2c0.2-0.2,0.4-0.3,0.5-0.4c0.2-0.2,0.3-0.4,0.3-0.5l-2-15l-4.3,4.8
		c0.5,0.5,0.9,1.1,1.2,1.7c0.4,0.7,0.6,1.4,0.6,2.1c0,0.9-0.2,1.6-0.7,2.2c-0.5,0.7-1.1,1-1.9,1c-0.8,0-1.4-0.3-1.9-1
		c-0.5-0.6-0.7-1.3-0.7-2.2c0-0.6,0.2-1.2,0.5-1.8c0.2-0.5,0.5-0.9,0.9-1.3c-1-1.2-1.8-2.2-2.3-3c-0.6-0.8-0.9-1.5-1.1-1.9l-2,14.4
		c0,0.2,0.1,0.3,0.3,0.5c0.2,0.1,0.4,0.3,0.6,0.4c0.1,0.1,0.1,0.1,0.1,0.2c0,0.1-0.1,0.1-0.2,0.1c-0.1,0-0.3,0-0.7,0
		c-0.4,0-0.7,0-0.9,0c-0.4,0-0.7,0-0.9,0c-0.2,0-0.5,0-0.8,0c-0.2,0-0.3,0-0.3-0.1c0-0.1,0.1-0.2,0.2-0.2c0.2-0.1,0.3-0.3,0.5-0.4
		c0.2-0.2,0.3-0.4,0.4-0.5l2.3-16c0-0.2-0.1-0.3-0.3-0.6c-0.2-0.1-0.4-0.3-0.6-0.4c-0.1-0.1-0.1-0.1-0.1-0.2c0-0.1,0.1-0.2,0.2-0.2
		c0.1,0,0.3,0,0.6,0c0.4,0,0.7,0,1,0c0.4,0,0.7,0,0.9,0c0.2,0,0.5,0,0.8-0.1c0.2,0,0.3,0,0.3,0.1c0,0.1,0,0.1-0.1,0.2
		c-0.2,0.2-0.4,0.3-0.5,0.4c-0.2,0.2-0.4,0.4-0.4,0.5c0,0,0,0.1,0,0.1c0.1,0.4,0.6,1,1.3,1.8c0.6,0.7,1.3,1.4,2,2.2
		c0.7,0.7,1,1,1.1,1l4.3-4.9c0.1-0.1,0.2-0.3,0.2-0.4c0-0.1,0-0.2-0.1-0.3c0-0.1-0.1-0.1-0.3-0.2c-0.1-0.1-0.3-0.2-0.4-0.3
		c-0.1-0.1-0.1-0.1-0.1-0.2c0-0.1,0.1-0.1,0.3-0.1c0.2,0,0.3,0,0.5,0c0.6,0,1,0.1,1.2,0.1c0.3,0,0.6,0,0.9,0c0.4,0,0.6,0,0.6,0
		c0.2,0,0.4,0.1,0.4,0.2c0,0.1,0,0.1-0.1,0.2c-0.2,0.1-0.3,0.2-0.4,0.3c-0.4,0.2-0.5,0.5-0.5,0.7l2.1,16c0,0.2,0.2,0.3,0.4,0.5
		C74.1,28.2,74.3,28.4,74.5,28.5"/>
	<path fill="#B41E8E" d="M113.5,13.4c0,0.7-0.2,1.3-0.7,1.8c-0.4,0.5-1.1,1-2,1.4c-0.7,0.3-1.4,0.6-2.3,0.8
		c-0.5,0.1-1.3,0.2-2.4,0.4c-1.1,0.2-1.9,0.3-2.4,0.5c-0.9,0.2-1.7,0.6-2.5,1.2c-0.7,0.5-1.2,1-1.6,1.6c0.3,1.5,1,2.8,2.2,4
		c1.3,1.3,2.8,2,4.5,2c1.2,0,2.2-0.2,3-0.7c0.8-0.5,1.2-1.1,1.2-1.8c0-0.2,0-0.4-0.1-0.6c-0.1-0.2-0.1-0.3-0.1-0.5c0,0,0-0.1,0-0.1
		c0,0,0.1,0,0.2,0c0.2,0,0.4,0.1,0.7,0.3c0.3,0.3,0.4,0.6,0.4,1c0,1-0.6,1.9-1.8,2.6c-1.1,0.6-2.4,0.9-3.9,0.9
		c-2.4,0-4.4-0.8-5.9-2.5c-1.5-1.7-2.3-3.9-2.3-6.6c0-2.4,0.8-4.5,2.4-6.3c1.6-1.8,3.6-2.7,5.9-2.7c1,0,1.9,0.2,2.6,0.6
		c0.8,0.4,1.2,1,1.2,1.8c0,0.4-0.1,0.7-0.4,1c-0.2,0.3-0.6,0.4-1,0.5c0,0-0.1,0-0.1,0h-0.1c-0.2,0-0.3,0-0.4,0
		c-0.1,0-0.2-0.1-0.3-0.1c-0.1,0-0.1-0.1-0.1-0.1c0,0,0-0.1,0.1-0.1c0.2-0.1,0.3-0.2,0.3-0.3c0.1-0.2,0.2-0.4,0.3-0.7
		c0,0,0-0.1,0-0.1v-0.1c0-0.5-0.3-0.8-0.9-1.1c-0.5-0.2-1-0.3-1.6-0.3c-0.9,0-1.8,0.2-2.6,0.6c-0.8,0.4-1.5,1-2.1,1.7
		c-0.6,0.7-1,1.5-1.2,2.4c-0.3,0.9-0.4,1.9-0.4,3c0,0.2,0,0.4,0,0.7c0,0.3,0,0.5,0.1,0.8c0.3-0.4,0.8-0.9,1.4-1.5
		c0.8-0.8,1.6-1.3,2.4-1.6c0.7-0.2,1.3-0.4,2-0.6c0.4-0.1,1-0.2,2-0.3c0.9-0.1,1.7-0.2,2.2-0.3c0.9-0.2,1.6-0.4,2.1-0.6
		c0.7-0.4,1.1-0.9,1.1-1.5c0-0.4-0.1-0.7-0.4-0.9c-0.1,0-0.2-0.1-0.3-0.1c-0.1,0-0.2,0-0.2,0c-0.1,0.1-0.2,0.1-0.2,0.1
		c0,0-0.1,0-0.1-0.1c0,0,0-0.1,0-0.2c0-0.1,0.1-0.3,0.3-0.4c0.2-0.1,0.4-0.2,0.6-0.2c0.3,0,0.6,0.1,0.8,0.4
		C113.4,12.8,113.5,13.1,113.5,13.4"/>
	<path fill="#B41E8E" d="M127.4,22.3c0,1.7-0.7,3.2-2.2,4.3c-1.4,1.1-3,1.6-4.9,1.6c-1.7,0-3.2-0.4-4.4-1.2c-1.3-0.9-2-2.2-2-3.8
		c0-1.1,0.5-2.1,1.4-2.9c0.9-0.8,2-1.2,3.3-1.2c1.2,0,2.3,0.2,3,0.7c0.9,0.5,1.3,1.3,1.3,2.3c0,0.7-0.3,1.3-0.9,1.8
		c-0.6,0.5-1.3,0.7-2,0.7c-0.7,0-1.3-0.1-1.8-0.4c-0.6-0.3-0.9-0.8-0.9-1.3c0-0.3,0.1-0.6,0.4-0.9c0.2-0.2,0.4-0.3,0.6-0.3
		c0.2,0,0.3,0,0.3,0c0.1,0,0.1,0,0.1,0.1c0,0,0,0.1-0.1,0.1c0,0,0,0.1,0,0.1c-0.1,0.2-0.1,0.3-0.1,0.5c0,0.3,0.1,0.5,0.4,0.7
		c0.3,0.2,0.5,0.3,0.9,0.3c0.5,0,0.9-0.2,1.3-0.5c0.3-0.3,0.5-0.7,0.5-1.2c0-0.7-0.3-1.2-1-1.6c-0.6-0.3-1.3-0.5-2.1-0.5
		c-1.1,0-2,0.3-2.8,0.9c-0.8,0.7-1.2,1.5-1.2,2.5c0,1.3,0.6,2.3,1.8,3.1c1.1,0.7,2.4,1,3.9,1c1.5,0,2.9-0.5,4-1.4
		c1.1-1,1.7-2.2,1.7-3.7c0-0.8-0.2-1.5-0.6-2.1c-0.3-0.5-0.8-1-1.5-1.5c-0.5-0.3-1.2-0.8-2.1-1.3c-1.2-0.6-2.4-1.2-3.6-1.7
		c-1.2-0.7-1.8-1.6-1.8-2.5c0-1,0.5-1.7,1.5-2.3c0.9-0.5,1.9-0.7,3.1-0.7c0.9,0,1.7,0.1,2.2,0.3c0.8,0.3,1.1,0.7,1.1,1.4
		c0,0.3-0.1,0.5-0.3,0.7c-0.2,0.2-0.4,0.3-0.6,0.3c-0.2,0-0.3,0-0.4,0c-0.2,0-0.3,0-0.5-0.1c-0.1-0.1-0.1-0.1-0.1-0.1
		c0,0,0-0.1,0.1-0.1c0.1-0.1,0.2-0.2,0.2-0.4c0-0.1,0.1-0.3,0.1-0.4c0-0.4-0.2-0.7-0.7-0.9c-0.4-0.2-0.8-0.2-1.3-0.2
		c-0.9,0-1.6,0.1-2.2,0.4c-0.7,0.3-1.1,0.8-1.1,1.4c0,0.5,0.3,0.9,0.8,1.3c0.4,0.3,1,0.6,1.9,1c1.3,0.6,2.1,0.9,2.3,1
		c1.1,0.5,1.9,1,2.5,1.5c0.8,0.6,1.4,1.3,1.7,2C127.2,20,127.4,21.1,127.4,22.3"/>
	<path fill="#B41E8E" d="M141,9.8c0,0.6-0.4,1.2-1.3,1.7c-0.9,0.5-1.8,0.8-2.8,0.8c-0.4,0-0.7,0-1-0.1c-0.3,0-0.6-0.1-1.1-0.2v14.6
		c0,0.2,0.1,0.3,0.4,0.5c0.3,0.3,0.5,0.4,0.5,0.4c0,0,0,0,0,0.1c0,0,0,0,0,0.1c0,0.1-0.1,0.1-0.2,0.1c-0.1,0-0.3,0-0.7,0
		c-0.4,0-0.7,0-0.9,0c-0.3,0-0.7,0-1.2,0.1c-0.2,0-0.3,0-0.4,0c-0.1,0-0.2-0.1-0.2-0.2c0,0,0-0.1,0-0.1c0,0,0.2-0.2,0.5-0.4
		c0.3-0.2,0.4-0.4,0.4-0.5V11.7c-0.6-0.1-1-0.2-1.4-0.2c-0.6-0.1-1.3-0.1-1.9-0.1c-0.7,0-1.2,0.1-1.5,0.3c-0.3,0.2-0.5,0.5-0.5,0.9
		c0,0.1,0,0.3,0.2,0.4c0.1,0.1,0.2,0.2,0.3,0.2c0.1,0,0.2,0,0.3,0c0.1,0,0.2,0,0.3,0c0.1,0,0.1-0.1,0.2-0.1c0.1,0,0.1,0,0.1,0
		c0,0,0,0.1,0,0.2c-0.1,0.2-0.2,0.4-0.3,0.6c-0.2,0.2-0.5,0.4-0.9,0.4c-0.3,0-0.6-0.1-0.8-0.4c-0.2-0.2-0.3-0.5-0.3-0.9
		c0-0.8,0.5-1.4,1.6-2c1.1-0.5,2.3-0.8,3.6-0.8c0.7,0,1.4,0.1,2,0.2c0.6,0.1,1.3,0.3,2,0.4c0.7,0.1,1.4,0.2,2.1,0.2
		c0.6,0,1-0.1,1.4-0.2c0.3-0.2,0.5-0.4,0.5-0.7c0-0.2-0.1-0.3-0.2-0.4c-0.1-0.1-0.3-0.1-0.5-0.1c-0.1,0-0.2,0-0.2-0.1
		c0,0,0-0.1,0-0.1c0.1-0.1,0.2-0.3,0.3-0.4c0.2-0.1,0.3-0.2,0.5-0.2c0.3,0,0.5,0.1,0.7,0.2C140.9,9.2,141,9.4,141,9.8"/>
	<path fill="#B41E8E" d="M145.8,27.5C145.8,27.6,145.9,27.6,145.8,27.5c0,0.1,0,0.1,0,0.1c0,0.1-0.1,0.1-0.2,0.1c-0.1,0-0.3,0-0.7,0
		c-0.4,0-0.7,0-0.9,0c-0.3,0-0.7,0-1.2,0.1c-0.2,0-0.3,0-0.4,0c-0.1,0-0.2-0.1-0.2-0.2c0,0,0-0.1,0-0.1c0,0,0.2-0.2,0.5-0.5
		c0.3-0.2,0.4-0.4,0.4-0.5V11.7c0-0.2-0.1-0.3-0.4-0.5c-0.2-0.1-0.4-0.3-0.6-0.4c0,0,0-0.1,0-0.2c0-0.1,0.1-0.1,0.2-0.1
		c0.1,0,0.3,0,0.8,0c0.4,0,0.7,0,0.9,0c0.3,0,0.7,0,1,0c0.3,0,0.5,0,0.6,0c0.1,0,0.2,0,0.2,0.1c0,0.1,0,0.1-0.1,0.1
		c0,0-0.2,0.2-0.5,0.4c-0.3,0.2-0.4,0.4-0.4,0.5v14.9c0,0.2,0.1,0.3,0.4,0.5C145.6,27.4,145.8,27.5,145.8,27.5"/>
	<path fill="#B41E8E" d="M163.4,10.3c0,0.3-0.1,0.5-0.3,0.8c-0.1,0.1-0.3,0.2-0.5,0.4c-0.1,0-0.1,0-0.1,0c-0.1,0-0.1,0-0.1-0.1
		c0.1-0.1,0.1-0.2,0.1-0.3c0-0.1,0-0.2,0-0.3c0-0.1,0-0.3-0.1-0.4c-0.1-0.2-0.3-0.4-0.5-0.6c-0.2-0.1-0.5-0.2-0.8-0.2
		c-0.5,0-1,0.2-1.4,0.6c-0.4,0.4-0.6,0.8-0.6,1.4c0,0.4,0.1,0.7,0.3,1.1c0.1,0.1,0.2,0.2,0.3,0.3c0.1,0,0.2,0.1,0.5,0.3
		c0.1,0,0.1,0.1,0.1,0.1c0,0,0,0.1-0.1,0.1l-0.8,0.4c-0.2,0.1-0.3,0.2-0.4,0.2c-0.2,0.2-0.3,0.2-0.3,0.2c0,0-0.1,0-0.1,0
		c-0.1,0-0.1-0.1-0.1-0.1c0-0.1,0-0.2,0.1-0.3c0-0.1,0-0.3,0-0.4c0-0.2,0-0.3-0.1-0.5c-0.2-0.7-0.6-1.2-1.3-1.6
		c-0.7-0.4-1.5-0.6-2.4-0.6c-1.7,0-3,0.8-4,2.2c-0.9,1.4-1.4,3-1.4,4.9c0,2.3,0.6,4.3,1.8,6.1c1.3,1.9,3,2.9,5.1,2.9
		c1.2,0,2.3-0.3,3.2-1c0.9-0.7,1.3-1.4,1.3-2.2c0-0.2-0.1-0.4-0.2-0.6c-0.1-0.2-0.3-0.3-0.4-0.3c-0.2,0-0.3,0-0.4,0.1
		c-0.1,0-0.1,0.1-0.2,0.2c0,0.1-0.1,0.1-0.1,0.1c0,0-0.1-0.1-0.1-0.2c0-0.2,0.1-0.5,0.2-0.7c0.2-0.3,0.5-0.5,0.8-0.5
		c0.4,0,0.7,0.2,0.9,0.5c0.2,0.3,0.3,0.6,0.3,1.1c0,0.1,0,0.2,0,0.2c-0.1,1.2-0.8,2.3-1.9,3.1c-1.2,0.9-2.5,1.3-4.1,1.3
		c-2.4,0-4.3-1-5.9-2.9c-1.5-1.9-2.2-4.1-2.2-6.7c0-2.3,0.7-4.2,2-5.9c1.4-1.7,3.2-2.6,5.3-2.6c1.4,0,2.5,0.4,3.4,1.2
		c0.1-0.7,0.4-1.2,0.8-1.8c0.5-0.6,1.2-0.9,2-0.9c0.6,0,1.1,0.2,1.5,0.5C163.2,9.4,163.4,9.8,163.4,10.3"/>
	<g>
		<g>
			<path fill="#9E7602" stroke="#9E7602" stroke-linecap="round" stroke-linejoin="round" stroke-miterlimit="10" d="M10.9,44
				c9.8-1.7,20.1-1.7,29.9,0c0.5,0.1,1.3-0.1,1.5-0.6c1-2.6,3.3-4.9,5.1-7.1c2-2.4,3.4-5.2,4.2-8.3c1.4-5.6-1.1-11.1-5.6-14.6
				c-3-2.4-7.2-3.2-11-2.6c-4.6,0.8-8,4-9.8,8.1c0.6-0.1,1.3-0.3,1.9-0.4c-1.9-4.3-5.3-7.3-10.1-7.9c-4-0.5-8,0.9-11.2,3.3
				c-4.2,3.3-6.1,8.4-5.3,13.7c0.5,3,2,5.8,3.8,8.3c1.8,2.5,4.4,4.8,5.5,7.7c0.3,0.7,2.2,0.1,1.9-0.5c-1.7-4.3-5.8-7.4-7.9-11.6
				c-2.3-4.5-2.2-9.8,0.5-14c2.3-3.6,6.3-5.9,10.6-5.9c4.7,0.1,8.2,3.3,10.1,7.4c0.3,0.7,1.7,0.1,1.9-0.4c1.9-4.3,5.5-7.2,10.3-7
				c4.3,0.1,8,2.8,10.4,6.2c2.8,4,2.6,9.1,0.8,13.4c-1.9,4.6-6.4,7.6-8.2,12.2c0.5-0.2,1-0.4,1.5-0.6c-10.1-1.7-20.8-1.7-30.8,0
				C10.2,43.1,9.6,44.2,10.9,44"/>
			<path fill="#9E7602" stroke="#9E7602" stroke-linecap="round" stroke-linejoin="round" stroke-miterlimit="10" d="M41.4,45.9
				c-4.2-0.7-9.5-1.2-15.2-1.2c-5.8,0-11,0.4-15.2,1.2v0.6h30.5V45.9z"/>
			<path fill="#9E7602" stroke="#9E7602" stroke-linecap="round" stroke-linejoin="round" stroke-miterlimit="10" d="M39.8,19.2
				c-0.6-0.2-0.8-0.6-0.6-1.1c0.4-1.3,2.2-0.7,2.9-0.4c1.2,0.6,1.9,2,2.4,3.2c1,2.7,0.1,5.9-1,8.4c-1.7,3.9-5,6.9-6.5,10.9
				c0.6,0,1.3,0,1.9,0c1.7-13.4-4.5-28.6-16.5-35.2c0,0.3,0,0.5,0.1,0.8c1.6-1.4,3.1-2.8,4.7-4.3c-0.5,0.1-1,0.2-1.5,0.3
				c1.6,1.4,3.1,2.8,4.7,4.3c0.1-0.4,0.2-0.7,0.3-1.1C18.4,11.8,12.1,27,13.8,40.6c0.6-0.2,1.3-0.3,1.9-0.5c-1.5-4-4.7-7.1-6.5-10.9
				c-1.2-2.5-1.7-5.3-1.2-8c0.3-1.5,1.3-3,2.7-3.7c0.9-0.5,2.1-0.1,2.7,0.6c0.4,0.5-0.1,1.4-0.5,0.8c-0.4-0.7-2.2,0-1.8,0.8
				c1.2,2.2,5,0.4,4.3-2c-1.1-3.3-5.9-1.4-7.5,0.2c-3.1,3-2.1,8.3-0.6,11.8c1.7,3.9,5,6.9,6.5,10.9c0.3,0.9,2,0.4,1.9-0.5
				c-1.6-12.8,4.2-27.6,15.7-34c0.4-0.2,0.8-0.7,0.3-1.1c-1.6-1.4-3.1-2.8-4.7-4.3c-0.4-0.4-1.2,0-1.5,0.3c-1.6,1.4-3.1,2.8-4.7,4.3
				c-0.2,0.2-0.2,0.6,0.1,0.8c11.7,6.5,17.7,21.2,16,34.3c-0.1,0.9,1.6,0.7,1.9,0c1.4-3.8,4.4-6.8,6.2-10.3c2-3.8,2.8-8.9-0.2-12.3
				c-1.9-2.2-6-2.6-7.6,0.2c-1.4,2.4,3,3.8,4.3,1.5C42.1,18.5,40.2,18.5,39.8,19.2"/>
			<path fill="#9E7602" stroke="#9E7602" stroke-linecap="round" stroke-linejoin="round" stroke-miterlimit="10" d="M31.9,30.3
				c-0.1,3.4-1.9,8.5-6.1,7.8c-3.4-0.5-4.9-4.6-5.1-7.5c-0.3-3.5,1.8-9,6.1-8.4c3.6,0.6,5.1,5.1,5.2,8.2c0,0.6,1.9,0.2,1.9-0.5
				c-0.1-4.4-2.8-9-7.7-8.8c-4.7,0.2-7.3,4.9-7.4,9.2c-0.1,4.5,2.9,9.2,7.7,8.9c4.7-0.2,7.3-4.9,7.4-9.2
				C33.9,29.3,31.9,29.7,31.9,30.3"/>
		</g>
		<g>
			<path fill="#FDBA12" d="M10.9,43.4c9.8-1.7,20.1-1.7,29.9,0c0.5,0.1,1.3-0.1,1.5-0.6c1-2.6,3.3-4.9,5.1-7.1
				c2-2.4,3.4-5.2,4.2-8.3c1.4-5.6-1.1-11.1-5.6-14.6c-3-2.4-7.2-3.2-11-2.6c-4.6,0.8-8,4-9.8,8.1c0.6-0.1,1.3-0.3,1.9-0.4
				c-1.9-4.3-5.3-7.3-10.1-7.9c-4-0.5-8,0.9-11.2,3.3c-4.2,3.3-6.1,8.4-5.3,13.7c0.5,3,2,5.8,3.8,8.3c1.8,2.5,4.4,4.8,5.5,7.7
				c0.3,0.7,2.2,0.1,1.9-0.5c-1.7-4.3-5.8-7.4-7.9-11.6c-2.3-4.5-2.2-9.8,0.5-14c2.3-3.6,6.3-5.9,10.6-5.9c4.7,0,8.2,3.3,10.1,7.4
				c0.3,0.7,1.7,0.1,1.9-0.4c1.9-4.3,5.5-7.2,10.3-7c4.3,0.1,8,2.8,10.4,6.2c2.8,4,2.6,9.1,0.8,13.4c-1.9,4.6-6.4,7.6-8.2,12.2
				c0.5-0.2,1-0.4,1.5-0.6c-10.1-1.7-20.8-1.7-30.8,0C10.2,42.5,9.6,43.6,10.9,43.4"/>
			<path fill="#FDBA12" d="M41.4,45.2c-4.2-0.7-9.5-1.2-15.2-1.2c-5.8,0-11,0.4-15.2,1.2v0.6h30.5V45.2z"/>
			<path fill="#FDBA12" d="M39.8,18.6c-0.6-0.2-0.8-0.6-0.6-1.1c0.4-1.3,2.2-0.7,2.9-0.4c1.2,0.6,1.9,2,2.4,3.2c1,2.7,0.1,5.9-1,8.4
				c-1.7,3.9-5,6.9-6.5,10.9c0.6,0,1.3,0,1.9,0c1.7-13.4-4.5-28.6-16.5-35.2c0,0.3,0,0.5,0.1,0.8C24,3.8,25.6,2.4,27.2,1
				c-0.5,0.1-1,0.2-1.5,0.3c1.6,1.4,3.1,2.8,4.7,4.3c0.1-0.4,0.2-0.7,0.3-1.1C18.4,11.2,12.1,26.4,13.8,40c0.6-0.2,1.3-0.3,1.9-0.5
				c-1.5-4-4.7-7.1-6.5-10.9c-1.2-2.5-1.7-5.3-1.2-8c0.3-1.5,1.3-3,2.7-3.7c0.9-0.5,2.1-0.1,2.7,0.6c0.4,0.5-0.1,1.4-0.5,0.8
				c-0.4-0.7-2.2,0-1.8,0.8c1.2,2.2,5,0.4,4.3-2c-1.1-3.3-5.9-1.4-7.5,0.2c-3.1,3-2.1,8.3-0.6,11.8C9,33,12.4,36,13.8,40
				c0.3,0.9,2,0.4,1.9-0.5c-1.6-12.8,4.2-27.6,15.7-34c0.4-0.2,0.8-0.7,0.3-1.1c-1.6-1.4-3.1-2.8-4.7-4.3c-0.4-0.4-1.2,0-1.5,0.3
				c-1.6,1.4-3.1,2.8-4.7,4.3c-0.2,0.2-0.2,0.6,0.1,0.8C32.6,12,38.6,26.8,37,39.8c-0.1,0.9,1.6,0.7,1.9,0c1.4-3.8,4.4-6.8,6.2-10.3
				c2-3.8,2.8-8.9-0.2-12.3c-1.9-2.2-6-2.6-7.6,0.2c-1.4,2.4,3,3.8,4.3,1.5C42.1,17.9,40.2,17.9,39.8,18.6"/>
			<path fill="#FDBA12" d="M31.9,29.7c-0.1,3.4-1.9,8.5-6.1,7.8c-3.4-0.5-4.9-4.6-5.1-7.5c-0.3-3.5,1.8-9,6.1-8.4
				c3.6,0.6,5.1,5.1,5.2,8.2c0,0.6,1.9,0.2,1.9-0.5c-0.1-4.4-2.8-9-7.7-8.8c-4.7,0.2-7.3,4.9-7.4,9.2c-0.1,4.5,2.9,9.2,7.7,8.9
				c4.7-0.2,7.3-4.9,7.4-9.2C33.9,28.7,31.9,29.1,31.9,29.7"/>
		</g>
	</g>
	<g>
		
			<path fill="#58004A" stroke="#58004A" stroke-width="0.5" stroke-linecap="round" stroke-linejoin="round" stroke-miterlimit="10" d="
			M72.9,38.5c0-0.8,0-1.5-0.9-1.6v-0.1h2.6v0.1c-0.9,0.1-0.9,0.8-0.9,1.5v5.4c0,0.7,0,1.5,0.9,1.6v0.1H72v-0.1
			c0.9-0.1,0.9-0.8,0.9-1.5v-0.5c0-0.3,0-0.9-0.1-1.2c-0.1-0.4-0.4-0.6-0.7-0.8L68,37.9v6c0,0.8,0,1.5,0.9,1.6v0.1h-2.6v-0.1
			c0.9-0.1,0.9-0.8,0.9-1.5v-5.4c0-0.7,0-1.5-0.9-1.6v-0.1h3.5v0.1c-0.4,0-0.3,0.3,0.1,0.7l3,2.5V38.5z"/>
		
			<path fill="#58004A" stroke="#58004A" stroke-width="0.5" stroke-linecap="round" stroke-linejoin="round" stroke-miterlimit="10" d="
			M77.7,43.8c-0.1,0.3-0.2,0.6-0.2,0.9c0,0.4,0.3,0.7,0.7,0.7v0.1h-2.7v-0.1c0.3-0.1,0.5-0.1,0.7-0.4c0.2-0.3,0.5-0.9,0.6-1.2
			l2.1-5.7c0.1-0.3,0.2-0.5,0.2-0.8c0-0.2-0.2-0.4-0.4-0.4v-0.1h3v0.1c-0.2,0.1-0.4,0.2-0.4,0.5c0,0.2,0.1,0.4,0.1,0.5l2.3,6.6
			c0.2,0.5,0.3,0.8,0.8,1v0.1h-3v-0.1c0.5-0.1,0.7-0.5,0.7-0.9c0-1.2-1.5-2.8-3.7-2.9L77.7,43.8z M79.9,37.8L78.7,41
			c1,0,2,0.3,2.7,1.1L79.9,37.8z"/>
		
			<path fill="#58004A" stroke="#58004A" stroke-width="0.5" stroke-linecap="round" stroke-linejoin="round" stroke-miterlimit="10" d="
			M87.7,43.8c0,0.7,0,1.5,0.9,1.6v0.1h-3.2v-0.1c0.9-0.1,0.9-0.8,0.9-1.5v-5.4c0-0.7,0-1.5-0.9-1.6v-0.1h3.2v0.1
			c-0.9,0.1-0.9,0.8-0.9,1.5V43.8z"/>
		
			<path fill="#58004A" stroke="#58004A" stroke-width="0.5" stroke-linecap="round" stroke-linejoin="round" stroke-miterlimit="10" d="
			M95.6,45.8c-0.1-0.1-0.2-0.1-0.4-0.2c-0.1,0-0.3,0-0.4,0h-5.3v-0.1c0.8-0.1,0.9-0.8,0.9-1.4v-5.5c0-0.7,0-1.5-0.9-1.6v-0.1h3.2
			v0.1c-0.9,0.1-0.9,0.8-0.9,1.5v5.1c0,0.2,0,0.8,0.1,1c0.1,0.4,0.6,0.5,0.9,0.5c1.7,0,3.1-1.1,3.8-2.6l0.1,0.1L95.6,45.8z"/>
		
			<path fill="#58004A" stroke="#58004A" stroke-width="0.5" stroke-linecap="round" stroke-linejoin="round" stroke-miterlimit="10" d="
			M103.9,39.3l-0.1,0c-0.4-1.2-1.7-2-2.9-2c-0.7,0-1.7,0.3-1.7,1.1c0,0.6,0.9,0.8,1.4,1l1.9,0.6c1.7,0.5,2.4,1.5,2.4,2.6
			c0,2.1-1.4,3.2-3.6,3.2c-1.1,0-1.9-0.4-2.6-0.4c-0.2,0-0.3,0.1-0.5,0.2l-0.8-3.3l0.1,0C98,43.7,99.3,45,101,45
			c1.7,0,2.5-0.7,2.5-1.8c0-1.2-1.1-1.5-2-1.7l-1.8-0.5c-1-0.3-1.9-0.8-1.9-2c0-1.6,1.5-2.2,2.7-2.2c1,0,1.5,0.3,2.3,0.3
			c0.2,0,0.3-0.1,0.5-0.2L103.9,39.3z"/>
	</g>
	<g>
		<path fill="#B41E8E" d="M72.9,38.2c0-0.8,0-1.5-0.9-1.6v-0.1h2.6v0.1c-0.9,0.1-0.9,0.8-0.9,1.5v5.4c0,0.7,0,1.5,0.9,1.6v0.1H72
			v-0.1c0.9-0.1,0.9-0.8,0.9-1.5V43c0-0.3,0-0.9-0.1-1.2c-0.1-0.4-0.4-0.6-0.7-0.8L68,37.5v6c0,0.8,0,1.5,0.9,1.6v0.1h-2.6v-0.1
			c0.9-0.1,0.9-0.8,0.9-1.5v-5.4c0-0.7,0-1.5-0.9-1.6v-0.1h3.5v0.1c-0.4,0-0.3,0.3,0.1,0.7l3,2.5V38.2z"/>
		<path fill="#B41E8E" d="M77.7,43.4c-0.1,0.3-0.2,0.6-0.2,0.9c0,0.4,0.3,0.7,0.7,0.7v0.1h-2.7v-0.1c0.3-0.1,0.5-0.1,0.7-0.4
			c0.2-0.3,0.5-0.9,0.6-1.2l2.1-5.7c0.1-0.3,0.2-0.5,0.2-0.8c0-0.2-0.2-0.4-0.4-0.4v-0.1h3v0.1c-0.2,0.1-0.4,0.2-0.4,0.5
			c0,0.2,0.1,0.4,0.1,0.5l2.3,6.6c0.2,0.5,0.3,0.8,0.8,1v0.1h-3v-0.1c0.5-0.1,0.7-0.5,0.7-0.9c0-1.2-1.5-2.8-3.7-2.9L77.7,43.4z
			 M79.9,37.4l-1.2,3.2c1,0,2,0.3,2.7,1.1L79.9,37.4z"/>
		<path fill="#B41E8E" d="M87.7,43.4c0,0.7,0,1.5,0.9,1.6v0.1h-3.2v-0.1c0.9-0.1,0.9-0.8,0.9-1.5v-5.4c0-0.7,0-1.5-0.9-1.6v-0.1h3.2
			v0.1c-0.9,0.1-0.9,0.8-0.9,1.5V43.4z"/>
		<path fill="#B41E8E" d="M95.6,45.4c-0.1-0.1-0.2-0.1-0.4-0.2c-0.1,0-0.3,0-0.4,0h-5.3v-0.1c0.8-0.1,0.9-0.8,0.9-1.4v-5.5
			c0-0.7,0-1.5-0.9-1.6v-0.1h3.2v0.1c-0.9,0.1-0.9,0.8-0.9,1.5v5.1c0,0.2,0,0.8,0.1,1c0.1,0.4,0.6,0.5,0.9,0.5
			c1.7,0,3.1-1.1,3.8-2.6l0.1,0.1L95.6,45.4z"/>
		<path fill="#B41E8E" d="M103.9,39l-0.1,0c-0.4-1.2-1.7-2-2.9-2c-0.7,0-1.7,0.3-1.7,1.1c0,0.6,0.9,0.8,1.4,1l1.9,0.6
			c1.7,0.5,2.4,1.5,2.4,2.6c0,2.1-1.4,3.2-3.6,3.2c-1.1,0-1.9-0.4-2.6-0.4c-0.2,0-0.3,0.1-0.5,0.2l-0.8-3.3l0.1,0
			c0.5,1.6,1.7,2.8,3.4,2.8c1.7,0,2.5-0.7,2.5-1.8c0-1.2-1.1-1.5-2-1.7l-1.8-0.5c-1-0.3-1.9-0.8-1.9-2c0-1.6,1.5-2.2,2.7-2.2
			c1,0,1.5,0.3,2.3,0.3c0.2,0,0.3-0.1,0.5-0.2L103.9,39z"/>
	</g>
	<g>
		
			<path fill="#9E7602" stroke="#9E7602" stroke-width="0.5" stroke-linecap="round" stroke-linejoin="round" stroke-miterlimit="10" d="
			M116.9,45.7v-0.1c0.9-0.2,0.7-0.9,0-1.6c-0.7,1.2-2.1,1.9-3.5,1.9c-1.7,0-3.4-1.1-3.4-2.9c0-1.4,1-2.4,2.3-2.7
			c-0.6-0.4-1-0.9-1-1.7c0-1.3,1.3-1.9,2.3-1.9c1.1,0,2.1,0.6,2.1,1.8c0,0.2,0,0.4-0.1,0.5c0.7,0.5,1.5,0.8,2.4,0.8
			c0.5,0,1.1-0.2,1.1-0.8c0-0.3-0.2-0.5-0.5-0.5c-0.3,0-0.5,0.1-0.6,0.2c0.2-0.4,0.7-0.8,1.1-0.8c0.7,0,1.1,0.5,1.1,1.2
			c0,1-0.9,1.7-1.9,1.7c-0.4,0-0.8-0.1-1.2-0.3c0.4,0.8,0.4,1.6,0.3,2.1c0.7,0.6,1.3,1.4,1.7,2.2c0.2,0.3,0.4,0.6,0.8,0.6v0.1H116.9
			z M116.2,43.4l-3-2.4l-0.4-0.3c-0.8,0.5-1.3,1.1-1.3,2.2c0,1.4,0.9,2.4,2.3,2.4c1.1,0,2.1-0.7,2.6-1.6L116.2,43.4z M114.7,38.5
			c0-0.7-0.5-1.1-1.1-1.1c-0.5,0-1.1,0.3-1.1,0.9c0,0.7,0.7,1.2,1.2,1.5C114.2,39.6,114.7,39.1,114.7,38.5z M116.8,42.2
			c0.1-1.2-0.3-2.4-1.2-3c-0.3,0.5-0.8,0.8-1.5,0.9L116.8,42.2z"/>
		<path fill="#FDBA12" d="M116.9,45.2v-0.1c0.9-0.2,0.7-0.9,0-1.6c-0.7,1.2-2.1,1.9-3.5,1.9c-1.7,0-3.4-1.1-3.4-2.9
			c0-1.4,1-2.4,2.3-2.7c-0.6-0.4-1-0.9-1-1.7c0-1.3,1.3-1.9,2.3-1.9c1.1,0,2.1,0.6,2.1,1.8c0,0.2,0,0.4-0.1,0.5
			c0.7,0.5,1.5,0.8,2.4,0.8c0.5,0,1.1-0.2,1.1-0.8c0-0.3-0.2-0.5-0.5-0.5c-0.3,0-0.5,0.1-0.6,0.2c0.2-0.4,0.7-0.8,1.1-0.8
			c0.7,0,1.1,0.5,1.1,1.2c0,1-0.9,1.7-1.9,1.7c-0.4,0-0.8-0.1-1.2-0.3c0.4,0.8,0.4,1.6,0.3,2.1c0.7,0.6,1.3,1.4,1.7,2.2
			c0.2,0.3,0.4,0.6,0.8,0.6v0.1H116.9z M116.2,42.8l-3-2.4l-0.4-0.3c-0.8,0.5-1.3,1.1-1.3,2.2c0,1.4,0.9,2.4,2.3,2.4
			c1.1,0,2.1-0.7,2.6-1.6L116.2,42.8z M114.7,37.9c0-0.7-0.5-1.1-1.1-1.1c-0.5,0-1.1,0.3-1.1,0.9c0,0.7,0.7,1.2,1.2,1.5
			C114.2,39,114.7,38.6,114.7,37.9z M116.8,41.6c0.1-1.2-0.3-2.4-1.2-3c-0.3,0.5-0.8,0.8-1.5,0.9L116.8,41.6z"/>
	</g>
	<g>
		
			<path fill="#58004A" stroke="#58004A" stroke-width="0.5" stroke-linecap="round" stroke-linejoin="round" stroke-miterlimit="10" d="
			M131.1,39.4l-0.1,0c-0.4-1.2-1.7-2-2.9-2c-0.7,0-1.7,0.3-1.7,1.1c0,0.6,0.9,0.8,1.4,1l1.9,0.6c1.7,0.5,2.4,1.5,2.4,2.6
			c0,2.1-1.4,3.2-3.6,3.2c-1.1,0-1.9-0.4-2.6-0.4c-0.2,0-0.3,0.1-0.5,0.2l-0.8-3.3l0.1,0c0.5,1.6,1.7,2.8,3.4,2.8
			c1.7,0,2.5-0.7,2.5-1.8c0-1.2-1.1-1.5-2-1.7l-1.8-0.5c-1-0.3-1.9-0.8-1.9-2c0-1.6,1.5-2.2,2.7-2.2c1,0,1.5,0.3,2.3,0.3
			c0.2,0,0.3-0.1,0.5-0.2L131.1,39.4z"/>
		
			<path fill="#58004A" stroke="#58004A" stroke-width="0.5" stroke-linecap="round" stroke-linejoin="round" stroke-miterlimit="10" d="
			M133.9,38.6c0-0.7,0-1.5-0.9-1.6v-0.1h4.9c1.1,0,2.1,0.2,2.1,1.5c0,1.9-3.3,2.9-4.7,3.2v2.3c0,0.8,0,1.5,0.9,1.6v0.1H133v-0.1
			c0.9-0.1,0.9-0.8,0.9-1.5V38.6z M135.4,40.9c1-0.3,3.2-1.1,3.2-2.4c0-0.9-0.8-1.1-1.9-1.1c-0.3,0-1,0.1-1.2,0.4
			c-0.1,0.2-0.1,0.7-0.1,0.9V40.9z"/>
		
			<path fill="#58004A" stroke="#58004A" stroke-width="0.5" stroke-linecap="round" stroke-linejoin="round" stroke-miterlimit="10" d="
			M141.1,43.8c-0.1,0.3-0.2,0.6-0.2,0.9c0,0.4,0.3,0.7,0.7,0.7v0.1h-2.7v-0.1c0.3-0.1,0.5-0.1,0.7-0.4c0.2-0.3,0.5-0.9,0.6-1.2
			l2.1-5.7c0.1-0.3,0.2-0.5,0.2-0.8c0-0.2-0.2-0.4-0.4-0.4v-0.1h3v0.1c-0.2,0.1-0.4,0.2-0.4,0.5c0,0.2,0.1,0.4,0.1,0.5l2.3,6.6
			c0.2,0.5,0.3,0.8,0.8,1v0.1h-3v-0.1c0.5-0.1,0.7-0.5,0.7-0.9c0-1.2-1.5-2.8-3.7-2.9L141.1,43.8z M143.3,37.8l-1.2,3.2
			c1,0,2,0.3,2.7,1.1L143.3,37.8z"/>
	</g>
	<g>
		<path fill="#B41E8E" d="M131.1,39l-0.1,0c-0.4-1.2-1.7-2-2.9-2c-0.7,0-1.7,0.3-1.7,1.1c0,0.6,0.9,0.8,1.4,1l1.9,0.6
			c1.7,0.5,2.4,1.5,2.4,2.6c0,2.1-1.4,3.2-3.6,3.2c-1.1,0-1.9-0.4-2.6-0.4c-0.2,0-0.3,0.1-0.5,0.2l-0.8-3.3l0.1,0
			c0.5,1.6,1.7,2.8,3.4,2.8c1.7,0,2.5-0.7,2.5-1.8c0-1.2-1.1-1.5-2-1.7l-1.8-0.5c-1-0.3-1.9-0.8-1.9-2c0-1.6,1.5-2.2,2.7-2.2
			c1,0,1.5,0.3,2.3,0.3c0.2,0,0.3-0.1,0.5-0.2L131.1,39z"/>
		<path fill="#B41E8E" d="M133.9,38.2c0-0.7,0-1.5-0.9-1.6v-0.1h4.9c1.1,0,2.1,0.2,2.1,1.5c0,1.9-3.3,2.9-4.7,3.2v2.3
			c0,0.8,0,1.5,0.9,1.6v0.1H133v-0.1c0.9-0.1,0.9-0.8,0.9-1.5V38.2z M135.4,40.5c1-0.3,3.2-1.1,3.2-2.4c0-0.9-0.8-1.1-1.9-1.1
			c-0.3,0-1,0.1-1.2,0.4c-0.1,0.2-0.1,0.7-0.1,0.9V40.5z"/>
		<path fill="#B41E8E" d="M141.1,43.4c-0.1,0.3-0.2,0.6-0.2,0.9c0,0.4,0.3,0.7,0.7,0.7v0.1h-2.7v-0.1c0.3-0.1,0.5-0.1,0.7-0.4
			c0.2-0.3,0.5-0.9,0.6-1.2l2.1-5.7c0.1-0.3,0.2-0.5,0.2-0.8c0-0.2-0.2-0.4-0.4-0.4v-0.1h3v0.1c-0.2,0.1-0.4,0.2-0.4,0.5
			c0,0.2,0.1,0.4,0.1,0.5l2.3,6.6c0.2,0.5,0.3,0.8,0.8,1v0.1h-3v-0.1c0.5-0.1,0.7-0.5,0.7-0.9c0-1.2-1.5-2.8-3.7-2.9L141.1,43.4z
			 M143.3,37.4l-1.2,3.2c1,0,2,0.3,2.7,1.1L143.3,37.4z"/>
	</g>
	<path fill="#9E7602" stroke="#9E7602" stroke-width="0.5" stroke-miterlimit="10" d="M161.5,41.1c-1.2-2.6-1.8-4.2-3-5.7
		c-1.2-1.3-3.8-2.6-7.1-3.1l-3.1-0.3c-2.2-0.1-3.6,0-5.4,0H67.7c0,0-2.3,0.1-3.5,0.2c-4.7,0.2-7.7,1.6-9.2,3.3c-1.3,1.4-1.8,3-3,5.7
		c-1.4,3.1-2.4,4.6-4.5,5.4c0.1,0.9,3.1-0.2,4.2-1.2c0.2,0.6,0.5,0.8,0.8,0.4c0.4-0.4,0.6-1.3,0.8-2c0-0.1,0-0.2,0.1,0
		c0.9,1.3,2.9,2.4,5,2.5c3.8,0.3,5.7-2.6,5.8-4.5c0-1-0.2-1.9-0.6-2.6c-1.4-2.3-3.3-1.1-3.3,0c0,0.7,0.6,1.3,1.3,1.3
		c0.4,0,0.7-0.2,1-0.4c0.4,0.8,0.5,1.7,0.3,2.6c-0.6,2.3-3.1,3.1-5.7,2.2c-0.3-0.1-0.6-0.2-0.8-0.3c0.3-0.1,0.4,0.1,0.7,0.2
		c1.4,0.3,2.7-0.2,3.3-1c0.3-0.3,0.3-0.5-0.1-0.8c-0.3-0.2-0.7-0.2-0.7-0.2c0.3-1.3-0.4-2.7-1.4-2.9c-0.3-0.1-0.3,0.1-0.2,0.2
		c0.4,0.9-0.3,1.7-1,1.9c-1.6,0.6-3-0.1-2.8-2c0.2-2.9,3.3-5.9,7.2-6.5c1.5-0.2,3.8-0.4,6.5-0.5v0H146c2.6,0.1,4.9,0.3,6.3,0.5
		c3.9,0.6,7,3.6,7.2,6.5c0.1,1.9-1.3,2.6-2.8,2c-0.7-0.3-1.4-1-1-1.9c0.1-0.1,0.1-0.3-0.2-0.2c-1,0.2-1.7,1.5-1.4,2.9
		c0,0-0.4,0-0.7,0.2c-0.4,0.2-0.3,0.4-0.1,0.8c0.6,0.8,1.9,1.3,3.3,1c0.3-0.1,0.5-0.3,0.7-0.2c-0.3,0.1-0.6,0.2-0.8,0.3
		c-2.6,1-5.1,0.1-5.7-2.2c-0.2-0.9-0.1-1.8,0.3-2.6c0.2,0.3,0.6,0.4,1,0.4c0.7,0,1.3-0.6,1.3-1.3c0-1.1-1.9-2.3-3.3,0
		c-0.4,0.7-0.7,1.7-0.6,2.6c0.1,1.9,1.9,4.8,5.8,4.5c2.1-0.1,4.1-1.2,5-2.5c0.1-0.2,0.1-0.1,0.1,0c0.1,0.8,0.4,1.6,0.8,2
		c0.4,0.4,0.6,0.2,0.8-0.4c1.1,0.9,4,2,4.2,1.2C164,45.7,162.9,44.2,161.5,41.1z"/>
	<path fill="#FDBA12" d="M161.5,40.6c-1.2-2.6-1.8-4.2-3-5.7c-1.2-1.3-3.8-2.6-7.1-3.1l-3.1-0.3c-2.2-0.1-3.6,0-5.4,0H67.7
		c0,0-2.3,0.1-3.5,0.2c-4.7,0.2-7.7,1.6-9.2,3.3c-1.3,1.4-1.8,3-3,5.7c-1.4,3.1-2.4,4.6-4.5,5.4c0.1,0.9,3.1-0.2,4.2-1.2
		c0.2,0.6,0.5,0.8,0.8,0.4c0.4-0.4,0.6-1.3,0.8-2c0-0.1,0-0.2,0.1,0c0.9,1.3,2.9,2.4,5,2.5c3.8,0.3,5.7-2.6,5.8-4.5
		c0-1-0.2-1.9-0.6-2.6c-1.4-2.3-3.3-1.1-3.3,0c0,0.7,0.6,1.3,1.3,1.3c0.4,0,0.7-0.2,1-0.4c0.4,0.8,0.5,1.7,0.3,2.6
		c-0.6,2.3-3.1,3.1-5.7,2.2c-0.3-0.1-0.6-0.2-0.8-0.3c0.3-0.1,0.4,0.1,0.7,0.2c1.4,0.3,2.7-0.2,3.3-1c0.3-0.3,0.3-0.5-0.1-0.8
		c-0.3-0.2-0.7-0.2-0.7-0.2c0.3-1.3-0.4-2.7-1.4-2.9c-0.3-0.1-0.3,0.1-0.2,0.2c0.4,0.9-0.3,1.7-1,1.9c-1.6,0.6-3-0.1-2.8-2
		c0.2-2.9,3.3-5.9,7.2-6.5c1.5-0.2,3.8-0.4,6.5-0.5v0H146c2.6,0.1,4.9,0.3,6.3,0.5c3.9,0.6,7,3.6,7.2,6.5c0.1,1.9-1.3,2.6-2.8,2
		c-0.7-0.3-1.4-1-1-1.9c0.1-0.1,0.1-0.3-0.2-0.2c-1,0.2-1.7,1.5-1.4,2.9c0,0-0.4,0-0.7,0.2c-0.4,0.2-0.3,0.4-0.1,0.8
		c0.6,0.8,1.9,1.3,3.3,1c0.3-0.1,0.5-0.3,0.7-0.2c-0.3,0.1-0.6,0.2-0.8,0.3c-2.6,1-5.1,0.1-5.7-2.2c-0.2-0.9-0.1-1.8,0.3-2.6
		c0.2,0.3,0.6,0.4,1,0.4c0.7,0,1.3-0.6,1.3-1.3c0-1.1-1.9-2.3-3.3,0c-0.4,0.7-0.7,1.7-0.6,2.6c0.1,1.9,1.9,4.8,5.8,4.5
		c2.1-0.1,4.1-1.2,5-2.5c0.1-0.2,0.1-0.1,0.1,0c0.1,0.8,0.4,1.6,0.8,2c0.4,0.4,0.6,0.2,0.8-0.4c1.1,0.9,4,2,4.2,1.2
		C164,45.2,162.9,43.7,161.5,40.6z"/>
</g>
</svg>
